#Comment line ignore any data following # character 
#Hierarchical Translation and Rotation (.htr) file 
[Header]	
#Header keywords are followed by a single value 
FileType HTR		#Single word string
DataType HTRS		#Translation followed by rotation and scale data
FileVersion 1		#integer
NumSegments 23		#integer
NumFrames 6		#integer
DataFrameRate 30		#integer, data frame rate in this file
EulerRotationOrder ZYX
CalibrationUnits mm
RotationUnits Degrees
GlobalAxisofGravity Y
BoneLengthAxis Y
ScaleFactor 1.00
[SegmentNames&Hierarchy]
#CHILD	PARENT
MASTER GLOBAL
weapon MASTER
arm_lock_bottom_part1 weapon
arm_lock_bottom_part2 weapon
arm_lock_bottom_part3 weapon
arm_lock_bottom_part4 weapon
arm_lock_top_part1 weapon
arm_lock_top_part2 weapon
arm_lock_top_part3 weapon
front_lower_left_part1 weapon
front_lower_right_part1 weapon
front_top_left_part weapon
front_top_right_part1 weapon
scope_part1 weapon
scope_part2 weapon
front_lower_left_part2 front_lower_left_part1
front_lower_left_part3 front_lower_left_part2
front_lower_right_part2 front_lower_right_part1
front_lower_right_part3 front_lower_right_part2
front_top_left_part2 front_top_left_part
front_top_left_part3 front_top_left_part2
front_top_right_part2 front_top_right_part1
front_top_right_part3 front_top_right_part2
[BasePosition]
#SegmentName Tx, Ty, Tz, Rx, Ry, Rz, BoneLength
MASTER 0.000000 0.000000 0.000000 -90.000000 0.000000 0.000000 10.000000 
weapon 0.000000 0.000000 0.000000 0.000000 0.000000 0.000000 10.000000 
arm_lock_bottom_part1 0.000000 0.000000 0.000000 0.000000 0.000000 0.000000 10.000000 
arm_lock_bottom_part2 0.000000 0.000000 0.000000 0.000000 0.000000 0.000000 10.000000 
arm_lock_bottom_part3 0.000000 0.000000 0.000000 0.000000 0.000000 0.000000 10.000000 
arm_lock_bottom_part4 0.000000 0.000000 0.000000 0.000000 0.000000 0.000000 10.000000 
arm_lock_top_part1 0.000000 0.000000 0.000000 0.000000 0.000000 0.000000 10.000000 
arm_lock_top_part2 0.000000 0.000000 0.000000 0.000000 0.000000 0.000000 10.000000 
arm_lock_top_part3 0.000000 0.000000 0.000000 0.000000 0.000000 0.000000 10.000000 
front_lower_left_part1 0.000000 0.000000 0.000000 0.000000 0.000000 0.000000 10.000000 
front_lower_right_part1 0.000000 0.000000 0.000000 0.000000 0.000000 0.000000 10.000000 
front_top_left_part 0.000000 0.000000 0.000000 0.000000 0.000000 0.000000 10.000000 
front_top_right_part1 0.000000 0.000000 0.000000 0.000000 0.000000 0.000000 10.000000 
scope_part1 0.000000 0.000000 0.000000 0.000000 0.000000 0.000000 10.000000 
scope_part2 0.000000 0.000000 0.000000 0.000000 0.000000 0.000000 10.000000 
front_lower_left_part2 0.000000 0.000000 0.000000 0.000000 0.000000 0.000000 10.000000 
front_lower_left_part3 0.000000 0.000000 0.000000 0.000000 0.000000 0.000000 10.000000 
front_lower_right_part2 0.000000 0.000000 0.000000 0.000000 0.000000 0.000000 10.000000 
front_lower_right_part3 0.000000 0.000000 0.000000 0.000000 0.000000 0.000000 10.000000 
front_top_left_part2 0.000000 0.000000 0.000000 0.000000 0.000000 0.000000 10.000000 
front_top_left_part3 0.000000 0.000000 0.000000 0.000000 0.000000 0.000000 10.000000 
front_top_right_part2 0.000000 0.000000 0.000000 0.000000 0.000000 0.000000 10.000000 
front_top_right_part3 0.000000 0.000000 0.000000 0.000000 0.000000 0.000000 10.000000 
#Beginning of Data. Separated by tabs
#Fr	Tx	Ty	Tz	Rx	Ry	Rz	SF
[MASTER]
9 0.000000 -0.000019 0.000002 0.002458 -0.000000 0.000000 0.000019
10 0.000000 -0.000019 0.000002 0.002458 -0.000000 0.000000 0.000019
11 0.000000 -0.000019 0.000002 0.002458 -0.000000 0.000000 0.000019
12 0.000000 -0.000019 0.000002 0.002458 -0.000000 0.000000 0.000019
13 0.000000 -0.000019 0.000002 0.002458 -0.000000 0.000000 0.000019
14 0.000000 -0.000019 0.000002 0.002458 -0.000000 0.000000 0.000019
[weapon]
9 10.182457 -168.977844 -13.084106 -0.002473 -0.000000 -0.000020 169.789246
10 10.182457 -168.977844 -13.084106 -0.002473 -0.000000 -0.000020 169.789246
11 10.182457 -168.977844 -13.084106 -0.002473 -0.000000 -0.000020 169.789246
12 10.182457 -168.977844 -13.084106 -0.002473 -0.000000 -0.000020 169.789246
13 10.182457 -168.977844 -13.084106 -0.002473 -0.000000 -0.000020 169.789246
14 10.182457 -168.977844 -13.084106 -0.002473 -0.000000 -0.000020 169.789246
[arm_lock_bottom_part1]
9 -48.820000 98.566208 -83.498993 179.999985 0.000004 9.388626 138.096970
10 -48.820000 98.566208 -83.498993 179.999985 0.000004 9.388626 138.096970
11 -48.820000 98.566208 -83.498993 179.999985 0.000004 9.388626 138.096970
12 -48.820000 98.566208 -83.498993 179.999985 0.000004 9.388626 138.096970
13 -48.820000 98.566208 -83.498993 179.999985 0.000004 9.388626 138.096970
14 -48.820000 98.566208 -83.498993 179.999985 0.000004 9.388626 138.096970
[arm_lock_bottom_part2]
9 -49.022766 58.782005 -78.526535 -179.999985 -0.000001 6.576765 109.658440
10 -49.022766 58.782005 -78.526535 -179.999985 -0.000001 6.576765 109.658440
11 -49.022766 58.782005 -78.526535 -179.999985 -0.000001 6.576765 109.658440
12 -49.022766 58.782005 -78.526535 -179.999985 -0.000001 6.576765 109.658440
13 -49.022766 58.782005 -78.526535 -179.999985 -0.000001 6.576765 109.658440
14 -49.022766 58.782005 -78.526535 -179.999985 -0.000001 6.576765 109.658440
[arm_lock_bottom_part3]
9 -51.266422 -16.798210 -66.920395 -179.999985 -0.000001 4.326176 85.957924
10 -51.266422 -16.798210 -66.920395 -179.999985 -0.000001 4.326176 85.957924
11 -51.266422 -16.798210 -66.920395 -179.999985 -0.000001 4.326176 85.957924
12 -51.266422 -16.798210 -66.920395 -179.999985 -0.000001 4.326176 85.957924
13 -51.266422 -16.798210 -66.920395 -179.999985 -0.000001 4.326176 85.957924
14 -51.266422 -16.798210 -66.920395 -179.999985 -0.000001 4.326176 85.957924
[arm_lock_bottom_part4]
9 -40.078102 -93.503113 -59.330063 -179.999985 -0.000000 1.322129 117.767326
10 -40.078102 -93.503113 -59.330063 -179.999985 -0.000000 1.322129 117.767326
11 -40.078102 -93.503113 -59.330063 -179.999985 -0.000000 1.322129 117.767326
12 -40.078102 -93.503113 -59.330063 -179.999985 -0.000000 1.322129 117.767326
13 -40.078102 -93.503113 -59.330063 -179.999985 -0.000000 1.322129 117.767326
14 -40.078102 -93.503113 -59.330063 -179.999985 -0.000000 1.322129 117.767326
[arm_lock_top_part1]
9 -47.532558 61.554489 78.379364 0.000000 -0.000000 -9.999999 110.415680
10 -47.532558 61.554489 78.379364 0.000000 -0.000000 -9.999999 110.415680
11 -47.532558 61.554489 78.379364 0.000000 -0.000000 -9.999999 110.415680
12 -47.532558 61.554489 78.379364 0.000000 -0.000000 -9.999999 110.415680
13 -47.532558 61.554489 78.379364 0.000000 -0.000000 -9.999999 110.415680
14 -47.532558 61.554489 78.379364 0.000000 -0.000000 -9.999999 110.415680
[arm_lock_top_part2]
9 -45.622673 13.709908 63.393555 0.000000 -0.000000 -7.722126 79.297745
10 -45.622673 13.709908 63.393555 0.000000 -0.000000 -7.722126 79.297745
11 -45.622673 13.709908 63.393555 0.000000 -0.000000 -7.722126 79.297745
12 -45.622673 13.709908 63.393555 0.000000 -0.000000 -7.722126 79.297745
13 -45.622673 13.709908 63.393555 0.000000 -0.000000 -7.722126 79.297745
14 -45.622673 13.709908 63.393555 0.000000 -0.000000 -7.722126 79.297745
[arm_lock_top_part3]
9 -43.788544 -73.747208 72.061615 0.000000 0.000000 -4.533067 112.022163
10 -43.788544 -73.747208 72.061615 0.000000 0.000000 -4.533067 112.022163
11 -43.788544 -73.747208 72.061615 0.000000 0.000000 -4.533067 112.022163
12 -43.788544 -73.747208 72.061615 0.000000 0.000000 -4.533067 112.022163
13 -43.788544 -73.747208 72.061615 0.000000 0.000000 -4.533067 112.022163
14 -43.788544 -73.747208 72.061615 0.000000 0.000000 -4.533067 112.022163
[front_lower_left_part1]
9 -46.798534 475.070984 -43.538895 0.000000 -0.000000 3.839558 479.351837
10 -46.798534 475.070984 -43.538895 0.000000 -0.000000 2.703148 479.351837
11 -46.798534 475.070984 -43.538895 0.000000 -0.000000 1.658667 479.351837
12 -46.798553 475.070984 -43.538895 0.000000 -0.000000 0.798695 479.351837
13 -46.798553 475.070984 -43.538895 0.000000 -0.000000 0.214960 479.351837
14 -46.798553 475.070984 -43.538895 0.000000 0.000000 -0.000020 479.351837
[front_lower_right_part1]
9 26.433468 475.070984 -43.538742 0.000000 0.000000 -3.334907 477.793671
10 26.433468 475.070984 -43.538742 0.000000 0.000000 -2.347795 477.793671
11 26.433468 475.070984 -43.538742 0.000000 0.000000 -1.440620 477.793671
12 26.433468 475.070984 -43.538742 0.000000 0.000000 -0.693644 477.793671
13 26.433468 475.070984 -43.538742 0.000000 0.000000 -0.186717 477.793671
14 26.433468 475.070984 -43.538742 0.000000 0.000000 -0.000020 477.793671
[front_top_left_part]
9 -47.897224 494.788910 7.030945 -0.000000 0.000003 -0.000001 497.151520
10 -47.897224 494.788910 7.030945 -0.000000 0.000003 -0.000001 497.151520
11 -47.897224 494.788910 7.030945 -0.000000 0.000003 -0.000001 497.151520
12 -47.897224 494.788910 7.030945 -0.000000 0.000003 -0.000001 497.151520
13 -47.897224 494.788910 7.030945 -0.000000 0.000003 -0.000001 497.151520
14 -47.897224 494.788910 7.030945 -0.000000 0.000003 -0.000001 497.151520
[front_top_right_part1]
9 27.532139 494.788910 7.031097 0.000000 -0.000000 -0.000000 495.604218
10 27.532139 494.788910 7.031097 0.000000 -0.000000 -0.000000 495.604218
11 27.532139 494.788910 7.031097 0.000000 -0.000000 -0.000000 495.604218
12 27.532139 494.788910 7.031097 0.000000 -0.000000 -0.000000 495.604218
13 27.532139 494.788910 7.031097 0.000000 -0.000000 -0.000000 495.604218
14 27.532139 494.788910 7.031097 0.000000 -0.000000 -0.000000 495.604218
[scope_part1]
9 -10.754299 87.338936 156.453094 -4.904470 -0.000000 0.000037 179.502960
10 -10.754299 87.338936 156.453094 -4.904470 -0.000000 0.000037 179.502960
11 -10.754299 87.338936 156.453094 -4.904470 -0.000000 0.000037 179.502960
12 -10.754299 87.338936 156.453094 -4.904470 -0.000000 0.000037 179.502960
13 -10.754299 87.338936 156.453094 -4.904470 -0.000000 0.000037 179.502960
14 -10.754299 87.338936 156.453094 -4.904470 -0.000000 0.000037 179.502960
[scope_part2]
9 -10.754299 82.597351 156.859894 -4.904458 0.000003 0.000037 177.603500
10 -10.754299 82.597351 156.859894 -4.904458 0.000003 0.000037 177.603500
11 -10.754299 82.597351 156.859894 -4.904458 0.000003 0.000037 177.603500
12 -10.754299 82.597351 156.859894 -4.904458 0.000003 0.000037 177.603500
13 -10.754299 82.597351 156.859894 -4.904458 0.000003 0.000037 177.603500
14 -10.754299 82.597351 156.859894 -4.904458 0.000003 0.000037 177.603500
[front_lower_left_part2]
9 -55.193558 141.618484 32.268444 0.000009 -0.000003 0.000003 155.381393
10 -55.193535 141.618576 32.268291 0.000009 -0.000003 0.000003 155.381439
11 -55.193516 141.618484 32.268444 0.000009 -0.000003 0.000003 155.381378
12 -55.193516 141.618484 32.268444 0.000009 -0.000003 0.000003 155.381378
13 -55.193535 141.618484 32.268291 0.000009 -0.000003 0.000003 155.381348
14 -55.193516 141.618484 32.268444 0.000009 -0.000003 0.000003 155.381378
[front_lower_left_part3]
9 -10.943755 108.509445 -11.124877 34.916492 -11.728783 -19.982471 109.625854
10 -10.943793 108.509445 -11.124877 34.508278 -13.017910 -18.077585 109.625854
11 -10.943775 108.509521 -11.124877 34.092461 -14.190127 -16.309721 109.625931
12 -10.943775 108.509445 -11.124877 33.720303 -15.145668 -14.840290 109.625854
13 -10.943775 108.509369 -11.125030 33.452374 -15.788681 -13.835663 109.625801
14 -10.943755 108.509369 -11.124725 33.350468 -16.024452 -13.463913 109.625763
[front_lower_right_part2]
9 55.193687 141.618408 32.268291 0.000009 0.000001 -0.000004 155.381348
10 55.193707 141.618408 32.268291 0.000009 0.000001 -0.000004 155.381348
11 55.193707 141.618347 32.268291 0.000009 0.000001 -0.000004 155.381271
12 55.193707 141.618271 32.268291 0.000009 0.000001 -0.000004 155.381210
13 55.193707 141.618347 32.268291 0.000009 0.000001 -0.000004 155.381271
14 55.193707 141.618347 32.268291 0.000009 0.000001 -0.000004 155.381271
[front_lower_right_part3]
9 10.943909 108.509445 -11.124725 34.174061 13.969425 16.645363 109.625854
10 10.943947 108.509369 -11.124725 33.943447 14.582313 15.709908 109.625786
11 10.943870 108.509369 -11.124877 33.721786 15.142151 14.845751 109.625786
12 10.943909 108.509285 -11.124725 33.532173 15.600694 14.130711 109.625702
13 10.943870 108.509445 -11.124573 33.399937 15.910533 13.643658 109.625839
14 10.943870 108.509369 -11.124877 33.350536 16.024376 13.463858 109.625786
[front_top_left_part2]
9 -42.049370 137.488998 54.810787 0.000000 -0.000003 0.000001 153.868774
10 -42.569122 137.487869 54.839325 0.000000 -0.000003 0.000001 154.020767
11 -40.974007 137.491302 54.751587 0.000000 -0.000003 0.000001 153.559311
12 -39.378906 137.494720 54.664001 0.000000 -0.000003 0.000001 153.113190
13 -40.206013 137.492889 54.709473 0.000000 -0.000003 0.000001 153.342575
14 -41.742039 137.489624 54.793854 0.000000 -0.000003 0.000001 153.779587
[front_top_left_part3]
9 -28.216438 149.656982 49.959717 -25.970835 -2.890000 -64.446289 160.278976
10 -28.216438 149.656982 49.959717 -25.889942 -3.585368 -65.878616 160.278976
11 -28.216457 149.657059 49.959564 -25.847345 -3.900758 -66.530426 160.279007
12 -28.216457 149.656906 49.959717 -25.869820 -3.737771 -66.193306 160.278915
13 -28.216438 149.656982 49.959717 -25.908943 -3.434690 -65.567711 160.278976
14 -28.216438 149.657059 49.959717 -25.928625 -3.271291 -65.230942 160.279053
[front_top_right_part2]
9 40.697514 137.484055 54.942169 0.000000 0.000000 -0.000020 153.547379
10 42.569122 137.488022 54.839325 0.000000 0.000000 -0.000020 154.020889
11 40.237885 137.483063 54.967342 0.000000 0.000000 -0.000020 153.434311
12 37.906647 137.478027 55.095520 0.000000 0.000000 -0.000020 152.881119
13 39.115448 137.480621 55.029144 0.000000 0.000000 -0.000020 153.163788
14 41.360317 137.485428 54.905697 0.000000 0.000000 -0.000020 153.712570
[front_top_right_part3]
9 28.216553 149.657059 49.959564 -26.022535 2.337767 63.312759 160.279022
10 28.216476 149.657135 49.959564 -25.911589 3.413376 65.523788 160.279083
11 28.216515 149.657059 49.959717 -25.847412 3.900794 66.530373 160.279068
12 28.216515 149.657135 49.959564 -25.905174 3.465314 65.630890 160.279083
13 28.216553 149.657135 49.959564 -25.994253 2.654410 63.962299 160.279099
14 28.216553 149.657135 49.959564 -26.032379 2.216815 63.064823 160.279099
